<?xml version="1.0" standalone="no"?>
<!DOCTYPE svg PUBLIC "-//W3C//DTD SVG 20010904//EN"
 "http://www.w3.org/TR/2001/REC-SVG-20010904/DTD/svg10.dtd">
<svg version="1.0" xmlns="http://www.w3.org/2000/svg"
 width="512.000000pt" height="512.000000pt" viewBox="0 0 512.000000 512.000000"
 preserveAspectRatio="xMidYMid meet">
<metadata>
Created by potrace 1.14, written by Peter Selinger 2001-2017
</metadata>
<g transform="translate(0.000000,512.000000) scale(0.100000,-0.100000)"
fill="#000000" stroke="none">
<path d="M3480 2560 l0 -2050 615 0 615 0 0 2050 0 2050 -615 0 -615 0 0
-2050z"/>
<path d="M1950 2150 l0 -1640 615 0 615 0 0 1640 0 1640 -615 0 -615 0 0
-1640z"/>
<path d="M410 1740 l0 -1230 615 0 615 0 0 1230 0 1230 -615 0 -615 0 0 -1230z"/>
</g>
</svg>
